# xmcd
#
# Track frame offsets: 
#        150
#        21357
#        39500
#        60550
#        80210
#        93171
#        111698
#        145254
#        169217
#        187729
#        206590
#        229211
#        244949
#        263158
#        289289
#        313238
#
# Disc length: 4344 seconds
#
# Revision: 0
# Processed by: cddbd v1.5.2PL0 Copyright (c) Steve Scherf et al.
# Submitted via: ExactAudioCopyFreeDBPlugin 1.0
#
DISCID=f010f610
DTITLE=Sugarfoot - Big Sky Country
DYEAR=2014
DGENRE=Country-rock
TTITLE0=River dream
TTITLE1=Owe them nothing
TTITLE2=Safe as houses
TTITLE3=Cold whispering winds
TTITLE4=Do it again
TTITLE5=Lucky breaks and lucky numbers
TTITLE6=Elevator man
TTITLE7=Days undone
TTITLE8=Monday (I'll stay sober)
TTITLE9=Lady waltz
TTITLE10=Dolphins hotel
TTITLE11=Ego in a bag
TTITLE12=How to keep her
TTITLE13=A horse called your love
TTITLE14=To be in love and hate you too
TTITLE15=My friend
EXTD=
EXTT0=
EXTT1=
EXTT2=
EXTT3=
EXTT4=
EXTT5=
EXTT6=
EXTT7=
EXTT8=
EXTT9=
EXTT10=
EXTT11=
EXTT12=
EXTT13=
EXTT14=
EXTT15=
PLAYORDER=
